<?xml version="1.0" encoding="iso-8859-1"?>
<!-- Generator: Adobe Illustrator 16.0.0, SVG Export Plug-In . SVG Version: 6.00 Build 0)  -->
<!DOCTYPE svg PUBLIC "-//W3C//DTD SVG 1.1//EN" "http://www.w3.org/Graphics/SVG/1.1/DTD/svg11.dtd">
<svg version="1.1" id="Capa_1" xmlns="http://www.w3.org/2000/svg" xmlns:xlink="http://www.w3.org/1999/xlink" x="0px" y="0px"
	 width="477.909px" height="477.909px" viewBox="0 0 477.909 477.909" style="enable-background:new 0 0 477.909 477.909;"
	 xml:space="preserve">
<g>
	<g>
		<path d="M238.954,307.011c-24.932,0-45.593,17.968-49.683,41.863h99.36C284.542,324.979,263.886,307.011,238.954,307.011z"/>
		<circle cx="290.567" cy="135.726" r="11.469"/>
		<path d="M322.112,147.195c6.319,0,11.462-5.141,11.462-11.469c0-6.326-5.143-11.469-11.462-11.469
			c-6.324,0-11.472,5.143-11.472,11.469C310.641,142.055,315.788,147.195,322.112,147.195z"/>
		<circle cx="353.652" cy="135.726" r="11.469"/>
		<path d="M238.954,0C106.985,0,0,106.984,0,238.955c0,131.971,106.985,238.954,238.954,238.954
			c131.967,0,238.955-106.983,238.955-238.954C477.909,106.984,370.921,0,238.954,0z M382.327,350.778
			c0,9.512-7.701,17.212-17.203,17.212H112.787c-9.502,0-17.205-7.7-17.205-17.212v-218.87c0-9.507,7.703-17.21,17.205-17.21
			h252.337c9.502,0,17.203,7.703,17.203,17.21V350.778z"/>
		<path d="M114.698,341.397c0-5.582,2.609-11.64,8.182-11.64h18.341c2.385-9.559,6.074-17.203,10.826-25.23l-13.002-12.643
			c-3.944-3.944-3.939-10.123,0.004-14.067l21.419-21.314c3.937-3.938,10.347-3.892,14.289,0.057l13.639,13.03
			c8.025-4.756,17.105-8.42,26.663-10.81v-18.341c0-5.566,3.183-11.042,8.756-11.042h30.266c5.587,0,8.77,5.481,8.77,11.051v18.332
			c9.559,2.39,18.631,6.077,26.663,10.833l13.371-13.007c3.939-3.944,10.482-3.935,14.431,0l21.487,21.422
			c3.939,3.943,3.977,10.347,0.037,14.29l-12.983,12.204c4.741,8.032,8.452,15.677,10.842,25.235h18.332
			c5.572,0,8.182,6.058,8.182,11.63V157.71H114.698V341.397z"/>
	</g>
</g>
<g>
</g>
<g>
</g>
<g>
</g>
<g>
</g>
<g>
</g>
<g>
</g>
<g>
</g>
<g>
</g>
<g>
</g>
<g>
</g>
<g>
</g>
<g>
</g>
<g>
</g>
<g>
</g>
<g>
</g>
</svg>
